Coordinates
version=1
nRows=4
nColumns=63
inDegrees=yes

Units are S.I. units (second, meters, Newtons, ...)
If the header above contains a line with 'inDegrees', this indicates whether rotational values are in degrees (yes) or radians (no).

endheader
time	pelvis_tilt	pelvis_list	pelvis_rotation	pelvis_tx	pelvis_ty	pelvis_tz	hip_flexion_r	hip_adduction_r	hip_rotation_r	knee_angle_r	knee_angle_r_beta	ankle_angle_r	subtalar_angle_r	mtp_angle_r	hip_flexion_l	hip_adduction_l	hip_rotation_l	knee_angle_l	knee_angle_l_beta	ankle_angle_l	subtalar_angle_l	mtp_angle_l	L5_S1_Flex_Ext	L5_S1_Lat_Bending	L5_S1_axial_rotation	L4_L5_Flex_Ext	L4_L5_Lat_Bending	L4_L5_axial_rotation	L3_L4_Flex_Ext	L3_L4_Lat_Bending	L3_L4_axial_rotation	L2_L3_Flex_Ext	L2_L3_Lat_Bending	L2_L3_axial_rotation	L1_L2_Flex_Ext	L1_L2_Lat_Bending	L1_L2_axial_rotation	L1_T12_Flex_Ext	L1_T12_Lat_Bending	L1_T12_axial_rotation	Abs_r3	Abs_r2	Abs_r1	Abs_t1	Abs_t2	neck_flexion	neck_bending	neck_rotation	arm_flex_r	arm_add_r	arm_rot_r	elbow_flex_r	pro_sup_r	wrist_flex_r	wrist_dev_r	arm_flex_l	arm_add_l	arm_rot_l	elbow_flex_l	pro_sup_l	wrist_flex_l	wrist_dev_l
      2.80000000	      2.64893890	    -10.64968458	    103.71669381	      0.25588987	      0.83660859	      0.83480800	      5.86548009	      2.03071839	      1.14159359	     11.15724703	      0.19473070	     23.07807463	    -10.52313613	      0.00000000	      2.74669382	     -1.99943704	     12.14045648	      1.57294144	      0.02745301	     24.57812295	     -7.45631153	      0.00000000	      0.04815501	      0.42283781	     -1.06370565	      0.08942866	      0.56237429	     -1.13018725	      0.07911386	      1.02808785	     -1.13018725	      0.05503636	      1.02808785	     -0.93074244	      0.04471674	      0.86225086	     -0.86426084	      0.02751577	      0.65497577	     -0.79777924	      0.34396640	      4.78322589	     -5.91601172	      0.00000000	      0.00000000	     28.11133851	     -5.73294412	     -5.49280208	      0.53624237	    -14.80579308	     38.80524017	     29.16725911	     68.26861114	     -1.83697649	      8.99160162	     10.86223695	     -6.24244690	    125.32622917	     11.09362317	      6.89377668	     -0.33543965	     -3.78049708
      2.81666667	      2.56139134	    -10.81288296	    103.90013408	      0.25570495	      0.83654455	      0.83500818	      5.71357474	      1.87861453	      1.04786792	     10.61952512	      0.18534568	     22.85204833	    -10.40238259	      0.00000000	      2.95552431	     -1.86011234	     12.34277900	      1.58255857	      0.02762086	     24.49792882	     -7.34220503	      0.00000000	      0.10994068	      0.40523157	     -1.00536708	      0.20417084	      0.53895799	     -1.06820252	      0.18062155	      0.98528005	     -1.06820252	      0.12565121	      0.98528005	     -0.87969620	      0.10209092	      0.82634823	     -0.81686075	      0.06282011	      0.62770371	     -0.75402531	      0.78529530	      4.58406061	     -5.59155009	      0.00000000	      0.00000000	     28.19573178	     -6.16410233	     -5.60532968	      0.31751857	    -14.80649343	     39.01495366	     28.85123007	     68.20341020	     -1.70894971	      9.16373399	     10.84499333	     -6.34878889	    125.31730716	     11.18758765	      6.80352110	     -0.29719875	     -3.59111649
      2.83333333	      2.55917921	    -10.92130479	    104.50802838	      0.25486484	      0.83658298	      0.83566794	      5.44635533	      1.66692071	     -0.52092564	      9.89122787	      0.17263449	     23.13996511	     -8.39307675	      0.00000000	      3.30920636	     -1.77831969	     11.25974054	      1.83778418	      0.03207538	     24.95258437	     -5.11149882	      0.00000000	      0.15489018	      0.39392920	     -1.05170229	      0.28764655	      0.52392584	     -1.11743368	      0.25446907	      0.95779946	     -1.11743368	      0.17702398	      0.95779946	     -0.92023950	      0.14383102	      0.80330043	     -0.85450811	      0.08850425	      0.61019633	     -0.78877671	      1.10636505	      4.45620591	     -5.84925261	      0.00000000	      0.00000000	     28.24589333	     -7.52157869	     -6.99983789	      0.49109296	    -14.95891250	     40.78245650	     28.35925024	     66.06324134	     -1.45264727	      8.93960507	     10.87219447	     -6.69515968	    122.59643885	     11.86348283	      8.06581172	     -0.63894501	     -2.71286811
      2.85000000	      2.57224913	    -11.05891570	    104.76971258	      0.25446770	      0.83652779	      0.83626196	      5.27923736	      1.63235767	     -0.18281557	      9.23330851	      0.16115163	     22.95397712	     -8.81782597	      0.00000000	      3.57683387	     -1.70292006	     11.94311960	      1.92159053	      0.03353808	     24.78150687	     -5.87899735	      0.00000000	      0.19772870	      0.38859538	     -1.09477778	      0.36720197	      0.51683185	     -1.16320139	      0.32484848	      0.94483080	     -1.16320139	      0.22598413	      0.94483080	     -0.95793056	      0.18361087	      0.79242369	     -0.88950694	      0.11298218	      0.60193424	     -0.82108333	      1.41235634	      4.39586860	     -6.08882557	      0.00000000	      0.00000000	     28.28215925	     -7.61297554	     -6.82374197	      0.87890311	    -15.17525466	     43.54183680	     27.90886419	     62.88054737	     -1.81118102	      8.37678301	     10.87895703	     -6.77338201	    122.69173180	     11.98565042	      7.69801151	     -0.71510547	     -2.32623738
